<?xml version="1.0" encoding="utf-8"?>
<!-- Generator: Adobe Illustrator 22.1.0, SVG Export Plug-In . SVG Version: 6.00 Build 0)  -->
<svg version="1.1" id="Layer_1" xmlns="http://www.w3.org/2000/svg" xmlns:xlink="http://www.w3.org/1999/xlink" x="0px" y="0px"
	 viewBox="0 0 800.2 389.1" style="enable-background:new 0 0 800.2 389.1;" xml:space="preserve">
<style type="text/css">
	.st0{fill:none;stroke:#1D1D1B;stroke-width:12.2673;stroke-linecap:round;stroke-linejoin:round;stroke-miterlimit:10;}
</style>
<path class="st0" d="M661.7,56.8L105,277.4c0,0-70.9,24.4-95.9,8c0,0,52.9-41.5,95.6-61.9S246,135.1,246,135.1l49.9-38.4l58.4-58.4
	l0,0L141.8,318.1l-56.3,52.6l85.7-68c0,0,97.8-94,130.9-109.1l-66.2,156.8c0,0,78-0.9,147.6-105.9c0,0-19.2-12.1-104.1,46.3"/>
<path class="st0" d="M492.8,117.5c0,0-3.5,18.2-56.5,76.3c0,0,79.3-63.4,70-39.8c0,0,0.8,24-98.3,96.2c0,0,42.2-18.2,99.2-48.2
	c0,0,27.6-23.9-31.4,101.9"/>
<path class="st0" d="M570.6,131.9c0,0,7.4,1-39.2,89.9c0,0,47.2-45.8,55.4-51.9c14.1-10.6,33.2-31.7,33.2-31.7s4.5,13.4-21,56.5
	c0,0-24.2,46.2-17.4,49.8c4.7,2.5,72.3-49.9,72.3-49.9s11.9-5.4-19.1,62.4c0,0-8.2,45,72-12.9c0,0,66.1-46,84.2-78.2"/>
</svg>
